<svg width="40" height="40" viewBox="0 0 40 40" fill="none" xmlns="http://www.w3.org/2000/svg">
<path d="M13.3333 6.66667H12.0003C10.1334 6.66667 9.19933 6.66667 8.48629 7.02998C7.85908 7.34956 7.34952 7.85913 7.02994 8.48633C6.66663 9.19937 6.66663 10.1335 6.66663 12.0003V28.0003C6.66663 29.8672 6.66663 30.8001 7.02994 31.5131C7.34952 32.1404 7.85908 32.6508 8.48629 32.9704C9.19863 33.3333 10.1316 33.3333 11.9948 33.3333H13.3333M13.3333 6.66667H28.0003C29.8671 6.66667 30.7992 6.66667 31.5123 7.02998C32.1395 7.34956 32.6508 7.85913 32.9703 8.48633C33.3333 9.19867 33.3333 10.1317 33.3333 11.9949V28.006C33.3333 29.8692 33.3333 30.8008 32.9703 31.5131C32.6508 32.1404 32.1395 32.6508 31.5123 32.9704C30.7999 33.3333 29.8683 33.3333 28.0051 33.3333H13.3333M13.3333 6.66667V33.3333M20 18.3333H26.6666M20 13.3333H26.6666" stroke="black" stroke-width="3.33333" stroke-linecap="round" stroke-linejoin="round"/>
</svg>
